<svg xmlns="http://www.w3.org/2000/svg" width="1024" height="1024" viewBox="0 0 1024 1024"><path fill="#fefefe" d="M0 0h1024v1024H0z"/><path d="M499.84 91.227c110.032-3.815 220.737 27.357 302.623 103.392 5.854 5.436 10.56 10.563 13.38 18.203.944 2.558 2.184 5.535 3.571 7.873 16.502 17.202 25.685 35.893 33.604 57.865 8.417 23.355 9.94 39.711 10.337 64.102 16.214-13.37 30.77-27.921 42.748-45.288 5.519-8 11.099-6.195 8.707 3.661-7.132 29.385-27.273 53.859-52.259 70.184-.503 19.238-3.299 39.118-5.771 58.205-7.572 58.463-14.886 100.267-.89 158.523 13.214-4.616 103.762-34.898 112.2-32.882.571.136.595.165.876.698 4.268 8.097-24.217 115.003-28.385 130.198 12.25.25 30.958-.493 43.541.537 1.078.088 2.303 1.801 2.768 3.147l-.519.952c-6.27 4.453-38.024 1.86-47.776 2.163-1.534 6.317-3.99 14.03-5.847 20.339l-8.453 28.642c-1.637 5.521-3.208 11.359-5.434 16.663-1.82 4.337-10.047 6.085-14.492 7.787a929 929 0 0 1-27.471 10.262c-15.433 5.478-30.758 11.333-46.232 16.68-12.911 4.462-26.025 8.348-38.874 13.008-22.605 8.199-45.145 17.358-67.384 26.514-10.847 4.466-21.855 9.85-32.947 13.587-4.461 1.503-7.457 1.614-11.909.111-17.355-5.858-135.046-63.194-139.655-74.96-.475-1.213-.633-2.298-.074-3.515 2.208-4.809 12.411-6.51 17.115-7.852 33.505-10.195 65.269-21.64 97.947-34.173 16.512-6.334 33.111-11.525 49.588-18.089a883 883 0 0 0 3.901-16.119c-10.871-.418-20.801-.026-31.593-.119l-69.134-.753c-30.858-.296-62.957-1.559-93.925-2.333l-150.102-3.804c-21.114-.44-43.749-1.563-64.767-1.264-23.162 16.695-55.413 21.674-81.317 7.641-6.988-3.786-11.794-8.788-17.109-14.531-11.671-1.104-32.98-.333-45.203-.195l-65.207.122-19.719-.028c-3.99.021-11.144 1.375-13.513-2.206-.334-3.592 1.765-4.647 4.911-4.731 6.907-.183 13.834-.078 20.746-.054q21.823.239 43.646-.076a265.7 265.7 0 0 1-78.63-124.958c-13.886-50.05-9.014-111.092 6.782-160.533 6.29-19.921 17.583-38.002 26.74-56.156 16.557-32.831 31.507-59.465 58.289-85.406 13.653-13.225 25.494-27.995 40.982-40.306 51.222-40.713 117.354-70.747 180.138-87.91 2.957-28.5 13.073-27.811 27.459-5.1 9.179-1.619 20.712-4.635 30.039-6.761 29.215-6.66 52.05-10.06 81.953-10.957"/><path fill="#fefefe" d="M514.456 424.701c16.758 2.153 36.085 10.135 50.841 17.69 42.235 21.625 75.959 58.559 96.913 100.847 4.599 9.281 9.401 17.174 12.649 27.191-9.093 17.852-17.608 36.068-22.572 55.557-1.057 4.151-4.638 12.612-.732 15.966 5.21.226 6.752-12.038 7.987-16.328 7.922-27.514 22.261-53.938 36.304-78.769 21.143 11.766 32.245 17.227 55.877 26.322-8.558 18.992-15.733 38.442-23.468 57.754-3.797 9.48-8.398 21.96-13.238 30.798-4.553 8.315-18.845 20.191-28.207 22.653-2.721.716-6.969-.151-9.73-.081-14.723.371-21.823-1.762-34.251-9.629-22.922-16.118-42.028-59.905-53.029-85.321-3.306-7.66-6.126-15.548-9.614-23.125-1.343-2.919-2.906-4.969-6.336-3.237-.826 1.682-.763 3.665-.107 5.414 6.443 17.185 14.044 34.185 21.689 50.87 2.874 6.27 7.129 12.672 9.162 19.083.992 3.129.911 10.391 1.108 14.004a927 927 0 0 1 1.406 31.841l-95.596-2.192c-11.329-.371-28.318-.366-39.368-1.549-.512-7.783-.611-16.201-1.033-24.113l-4.047-71.267c-1.159-19.322-4.279-44.742-3.028-63.524a159 159 0 0 0 14.205-18.789c3.605-5.647 7.083-12.136 11.232-17.321 11.266-14.08 33.662 12.889 41.422 9.839.667-.729 1.547-1.973 1.538-3.018-.206-23.857-4.608-47.647-17.977-67.566"/><path d="M475.74 551.177a4.695 4.695 0 1 1 3.039 8.883 4.696 4.696 0 0 1-3.039-8.883"/><path fill="#fefefe" d="M961.564 563.158c.894 2.498-2.948 17.76-3.659 21.432-9.422 48.653-22.978 96.345-36.83 143.885-2.645 9.075-5.402 18.56-9.042 27.252-37.737 14.287-74.992 29.117-113.472 41.421-13.09 4.186-26.859 9.615-39.753 14.503a1633 1633 0 0 0-45.524 18.407c-7.347 3.097-19.681 8.865-26.715 10.804-.113-.118-.577-.533-.559-.753 3.418-42.803 14.019-86.003 24.246-127.593 4.812-19.568 7.891-37.52 15.079-55.869 1.986-5.068 24.617-16.816 30.284-19.725 39.364-19.247 80.817-35.563 122.38-49.426a1019 1019 0 0 1 83.565-24.338"/><path d="M826.514 684.066c17.959-2.401 16.82 22.748 1.44 30.286-12.851 1.182-15.909-8.866-11.993-19.87 1.772-4.98 5.667-8.42 10.553-10.416"/><path fill="#fefefe" d="M827.444 690.415c9.648.42 5.985 13.287-.949 16.743-10.711.302-3.787-12.74.949-16.743"/><path fill="#fefefe" d="M394.432 475.924c.662 5.869-7.162 17.586-3.492 22.444 5.444 1.685 19.829-15.872 36.259-13.296 15.488 2.429 21.579 24.278 29.622 35.346q.188.256.38.51c-.871 20.958 1.672 41.147 2.703 61.904 1.603 32.262 4.355 65.435 5.215 97.607-20.927.353-45.957-1.03-67.373-1.504-28.597-1.622-62.014-1.534-90.981-2.145 4.128-5.389 8.22-10.716 11.632-16.588 17.349-29.863 17.866-65.141 20.249-98.598 1.136-15.949 5.451-32.914 13.561-46.806 7.203-12.339 20.517-18.657 31.281-27.313 4.632-3.716 7.441-6.852 10.944-11.561"/><path fill="#fefefe" d="M350.154 448.257c13.547 12.128 26.519 19.166 44.567 12.901-6.847 19.425-25.136 25.734-39.116 38.638-15.832 14.612-23.002 41.804-24.162 62.815-2.484 44.983-5.676 107.291-55.829 125.343-15.675 5.642-36.866 6.019-52.027-1.39a47.8 47.8 0 0 1-24.352-27.342c-8.135-23.683 2.436-52.061 12.792-73.366 6.778-13.447 15.727-26.047 23.271-39.095 6.7-11.59 13.783-22.861 19.87-34.802 6.537 3.454 12.874 7.237 19.58 10.426 10.892 5.18 22.197 9.513 33.395 14.001-3.553 11.397-10.774 28.508-15.462 39.673l-17.678 42.898c-.845 2.094-1.747 4.665-2.845 6.568-1.685 2.923-7.349 12.224.266 12.198 1.08-.626 2.238-1.467 2.814-2.626 11.007-22.158 19.723-45.67 29.109-68.561 3.266-7.965 5.688-16.178 8.821-24.177 1.737-4.437 5.803-3.178 7.295-7.525 2.88-10.205 6.577-21.633 8.981-32.003.081-.347-1.21-3.068-1.401-3.469l-.316-.653c.799-2.746 4.856-11.179 6.194-14.232 5.297-12.082 11.409-23.914 16.233-36.22"/><path fill="#fefefe" d="M457.136 271.272c2.062 2 3.765 6.701 5.69 9.165 15.582 19.944 35.91 28.759 59.809 33.797 14.267 44.486-12.575 102.478-63.579 104.51-16.819.202-30.026-4.341-42.064-16.313a65.2 65.2 0 0 1-10.525-13.449c-5.788-10.014-12.763-32.053-14.923-43.677-1.055-5.676-1.17-15.049-1.17-21.056 27.566-9.406 52.213-27.414 66.762-52.977"/><path d="M462.127 380.671c19.545.062 24.127 19.733 2.493 24.266-20.349 1.37-24.863-21.26-2.493-24.266"/><path fill="#fefefe" d="M460.09 388.091c4.332-.439 8.899-.179 11.658 3.66.501 3.556-2.098 4.53-5.005 5.758-4.066.304-12.103.485-12.307-5.257 1.154-2.596 3.085-3.15 5.654-4.161"/><path d="M463.211 345.34c7.472 1.709 4.504 9.535 3.984 15.815 2.731-.892 4.057-1.508 6.038.979.919 3.516-1.203 4.91-3.792 6.567-16.691 7.292-8.473-20.892-6.23-23.361"/><path d="M436.992 306.94c1.698-.15 2.935.204 4.232 1.241 1.826 6.106-13.65 13.488-18.07 14.909-2.562-.153-3.679-.182-4.577-2.693.69-4.009 13.408-9.834 18.415-13.457"/><path d="M476.865 306.109c2.46.248 18.033 6.235 19.109 8.032.111 2.086-.092 2.286-.958 4.272-5.201.583-14.781-2.162-17.994-6.56-1.376-1.884-.718-3.732-.157-5.744"/><path d="M482.85 332.268c7.079 1.415 8.161 7.504 2.062 11.284-6.993-.731-6.211-7.433-2.062-11.284"/><path d="M433.987 331.381c7.075 1.202 6.701 8.203.987 10.828-7.215-1.163-6.125-7.545-.987-10.828"/><path fill="#fefefe" d="M439.712 219.206c11.711-.195 20.168 1.294 30.317 7.204 7.744-1.327 14.383-2.481 22.319-1.426a50.83 50.83 0 0 1 34.488 20.176c14.527 19.265 15.816 54.136 12.447 77.269-2.776-.196-4.616.017-7.353.256-1.271-6.383-1.447-9.165-4.773-14.653-4.753-1.905-10.84-2.009-15.812-3.59-17.803-5.662-36-16.588-45.97-32.809-4.183-6.805-4-12.183-3.461-19.684-.293-1.654-.164-1.641-1.277-2.852-1.565-.675-1.583-.824-3.301-.518-2.299 1.773-2.415 4.004-2.944 6.754-5.959 30.969-39.252 51.899-66.779 62.256-4.935 1.857-2.621 3.947-3.942 7.491-6.618-3.659-6.767-3.644-14.486-2.224-1.941-7.019-3.038-12.354-3.581-19.616-3.122-41.779 32.334-81.712 74.108-84.034"/><path fill="#fefefe" d="M735.101 187.877c8.733 9.406 41.97 122.886 48.377 141.7a340 340 0 0 0 15.125 37.098c-6.221 8.97-12.743 16.841-18.679 26.161-2.701-9.49-5.314-19.881-8.737-28.665-3.309-8.491-8.066-11.957-16.325-9.096-.486.169-2.011-2.244-2.396-2.934-2.144-3.846-8.388-5.447-10.641-8.601-9.199-10.308-11.319-7.065-17.721 1.105-.277.354-5.397.653-7.041 2.965-4.745 6.671-4.338 16.802-3.957 24.51-8.393-12.307-19.469-24.372-29.41-35.525-6.332-7.105-14.151-13.37-21.15-19.825 3.92-6.735 10.146-13.476 15.233-19.487a455 455 0 0 0 16.104-20.062 218.4 218.4 0 0 0 32.607-62.199c3.071-8.994 5.419-18.353 8.611-27.145"/><path d="M738.053 225.197c5.915 1.272 11.288 18.049 11.302 23.779.004 1.352-1.489 2.11-2.437 2.782-5.297-1.002-10.856-18.59-11.192-23.73-.079-1.218 1.511-2.183 2.327-2.831"/><path d="M721.612 306.369c1.423-.08 3.359-.359 4.422.655 3.815 3.636 5.939 10.864 6.826 15.935.424 2.421-.298 3.209-1.574 4.842-6.869.567-8.767-10.688-10.448-15.861-.684-2.107-.434-3.734.774-5.571"/><path d="M774.893 341.492c1.245-.135 3.417-.497 4.319.407 4.106 4.112 7.308 14.883 3.39 19.704-5.695 1.328-6.41-5.568-7.76-9.859-1.17-3.719-2.021-6.772.051-10.252"/><path d="M728.448 252.377c6.081 2.616 8.348 12.12 8.595 18.288.058 1.445-1.8 2.089-2.893 2.678-1.198-.223-2.926-.662-3.442-1.844-2.259-5.163-9.042-15.321-2.26-19.122"/><path d="M739.384 279.424c6.791.001 8.218 9.516 8.96 14.923.333 2.426-.625 3.71-2.238 5.43-6.111-.641-7.893-12.419-8.89-17.523-.239-1.228 1.313-2.145 2.168-2.83"/><path d="M769.651 313.349c6.562 1.09 6.615 10.527 6.602 15.844-.004 1.395-1.651 2.397-2.649 3.21-1.372.007-3.499-.021-4.283-1.395-2.419-4.241-3.139-9.869-2.58-14.697.166-1.428 1.807-2.29 2.91-2.962"/><path d="M755.086 325.874c1.376.091 1.511.128 2.845.501 3.306 2.886 4.853 8.845 5.268 13.14.342 3.532.04 4.222-2.081 6.892-6.654 1.389-7.045-12.962-7.626-17.448-.191-1.474.664-2.186 1.594-3.085"/><path d="M751.607 262.32c4.863 1.461 9.375 12.828 8.658 17.613-.217 1.446-1.8 2.219-2.954 2.898-.707-.271-1.794-.789-2.295-1.559-2.717-4.182-6.195-10.788-6.061-15.88.037-1.397 1.64-2.374 2.652-3.072"/><path d="M711.468 283.455c6.817-.241 7.713 8.554 7.887 13.839.068 2.081-.862 2.797-2.307 4.101-6.263-1.298-7.606-8.951-7.962-14.628-.089-1.432 1.404-2.437 2.382-3.312"/><path d="M762.478 289.28c6.232 1.806 6.426 9.126 6.74 14.737.14 2.499-.954 3.46-2.675 5.073-1.059-.328-2.796-.838-3.252-1.887-2.213-5.095-6.125-13.908-.813-17.923"/><path d="M748.807 304.256c6.26 1.373 7.224 8.081 7.711 13.712.192 2.219-.57 3.076-2.095 4.601-6.196.236-6.691-5.569-7.393-10.82-.454-3.39-.504-4.911 1.777-7.493"/><path d="M692.89 306.348c5.987 1.001 8.534 7.683 8.526 13.252-.002 1.292-1.909 2.293-2.869 2.98-.994-.104-2.332-.201-2.931-1.149-2.841-4.498-8.23-10.869-2.726-15.083"/><path d="m701.75 324.983 2.236-.086c5.288 2.318 8.53 9.968 2.997 14.258-4.912-.392-8.287-6.455-8.045-11.043.071-1.343 1.805-2.403 2.812-3.129"/><path fill="#fefefe" d="m356.387 302.717 1.274.018c1.821 2.336 1.18 18.266 7.655 27.48-.386 2.44-.571 9.804-1.063 11.089-7.369 19.238-8.222 33.957.728 53.214 7.199 15.488 13.606 23.43 30.049 29.9l7.72 10.271c-4.679 7.534-6.682 11.595-7.403 20.467-5.455.756-12.433 1.94-17.773 1.078-12.144-1.962-21.41-10.817-28.328-20.466-6.325-9.037-16.238-21.921-14.562-33.666 2.562-12.954 20.372.327 22.744-13.614 3.695-21.71-36.926-14.097-37.337-2.144 3.947 5.705 25.32-13.537 30.373.26-.154.725-.11 1.404-.673 1.496-5.242.859-11.906-.264-16.429 3.65-15.76 13.639 3.575 38.684 11.532 49.746-2.918 9.379-7.68 19.002-11.822 27.969-4.082 8.838-8.016 17.785-12.61 26.356-2.958.097-35.593-16.674-40.565-19.258 13.654-15.44 29.559-32.638 26.699-55.014-1.803-14.1-9.502-28.416-10.886-42.028a28.4 28.4 0 0 1 6.353-20.9c5.92-7.243 15.284-11.588 24.429-13.018 5.853-.916 9.817 1.012 14.138 4.613-6.27-.67-10.95-1.068-17.191.916-4.161 1.324-14.916 6.87-15.512 11.363.494 2.051-.026 1.266 1.409 2.559 4.925.997 7.709-3.799 12.375-5.61 10.155-3.943 23.368-4.123 28.218 7.531-8.689-4.008-15.826-6.655-25.289-2.788-3.892 1.59-17.04 6.111-13.74 11.894.651.312 1.594.937 2.089.754 6.814-2.513 11.616-6.05 19.065-7.496 4.91-2.128 12.073 5.743 16.152 4.587 13.752-4.179 8.132-13.634.586-20.848-.249-.238.516-7.478-7.039-11.135-9.281-4.491-13.767-4.192-23.346-1.793a68.7 68.7 0 0 1 7.708-31.599c9.448-4.52 19.967-5.021 30.272-5.834"/><path fill="#fefefe" d="M732.575 344.21c1.531.427 2.692 1.1 3.325 2.612-.477 1.307-1.75 4.564-1.421 5.928 3.709 15.392 8.925 30.243 11.205 45.976.463 3.197 1.276 11.393 2.336 14.039 2.155 2.151 3.665 2.117 5.862.158 3.417-8.745-9.829-48.764-11.808-58.566l.466-.515c9.269-.129 16.273 52.221 19.731 54.766 2.107.407 1.081.449 3.192-.224 7.105-7.255-12.434-43.5-5.774-47.796 6.561 1.306 15.318 44.108 15.362 51.567.099 16.709-3.032 34.1-4.72 50.76-2.386 23.544-3.654 47.271-7.87 70.559l-9.598-4.107c-9.945-3.966-20.027-8.239-29.944-12.321 2.319-10.638 3.459-26.956 4.048-37.873l-2.757-4.845c-1.92-3.417-4.515-7.994-5.059-11.906-1.411-10.162-1.24-20.545-1.897-30.869-.347-8.523-2.343-16.995-3.349-25.39-.489-4.077-4.436-21.944-.829-23.759 6.307 4.359 8.746 44.279 16.091 43.23.696-.588 1.958-1.841 1.93-2.77-.567-15.134-6.908-29.649-10.386-44.224-1.279-5.357-2.608-23.216 2.69-26.54 4.229 2.885 6.83 57.292 12.727 66.516 2.75 1.977 5.947.414 5.732-2.664-.313-4.509-1.455-9.802-2.257-14.205a855 855 0 0 1-6.72-40.1c-.722-4.94-3.001-13.421-.308-17.437"/><path fill="#fefefe" d="M491.309 416.963c1.727 2.178 4.449 10.221 4.716 13.189 2.761 30.71-18.049 61.055-34.761 84.115-4.35-8.56-8.223-15.66-13.328-23.781-9.144-14.815-20.802-37.013-24.192-54.039 1.296-4.339 5.143-10.679 7.351-15.24 21.036 7.667 40.523 6.28 60.214-4.244"/><path fill="#fefefe" d="M701.461 716.022c.799.102.414-.069 1.052.705.145 2.476-.69 5.031-1.295 7.489-7.309 3.216-16.56 6.535-24.09 9.437l-57.593 21.696c-5.719 2.176-28.111 9.626-30.806 13.671.042 1.286.044 1.794.77 2.912 5.565 8.562 80.527 30.778 93.381 33.396-.634 6.122-1.179 12.59-2.178 18.639-6.558-1.387-16.876-5.248-23.318-7.503-23.867-8.132-51.195-22.012-73.94-33.04-9.103-4.413-21.582-10.004-30.146-14.651 43.97-13.613 86.2-29.366 129.181-45.779 6.316-2.411 12.586-4.777 18.982-6.972"/><path fill="#fefefe" d="m697.296 733.044.372.403c-.051 2.373-1.136 6.19-1.719 8.618-14.169 4.943-35.972 13.996-50.461 20.189-.934.399-1.126 2.073-1.172 3.048.437.864 1.264 1.996 2.189 2.094 3.971.423 13.381-4.079 16.861-5.45l30.532-11.986c-.562 3.934-1.313 7.304-2.177 11.192-5.617 1.706-24.351 8.356-26.966 13.055-.058 1.948-.291 1.046.883 2.755 4.061 1.774 17.049-5.631 23.884-7.726l-2.649 14.39c-1.007 4.829-1.78 9.995-2.595 14.881-22.43-4.79-43.96-13.016-65.595-20.471-6.466-2.229-12.919-4.553-19.067-7.57 6.817-3.273 25.02-9.65 32.732-12.436a1818 1818 0 0 0 39.947-15.194c8.057-3.109 17.219-6.306 25.001-9.792"/><path fill="#f5c87a" d="M370.455 99.193c10.297 6.234 18.783 22.069 18.037 34.082-1.746 28.11-20.288 58.04-40.339 77.169-3.936 3.596-6.91 6.099-11.358 9.008 15.092-28.756 20.463-46.823 25.724-79.433 1.52-9.419 4.661-33.257 7.936-40.827"/><path fill="#fefefe" d="M704.807 516.05c4.192 1.298 16.277 7.119 21.167 9.232a2901 2901 0 0 0 47.621 20.263c-1.791 7.496-5.09 15.738-10.296 21.541-1.431.976-3.5 1.744-5.25 1.713-2.49-.045-44.582-19.66-48.926-22.119-4.562-2.582-8.847-5.342-12.462-9.166 1.008-4.86 5.74-16.876 8.146-21.464"/><path fill="#f5c87a" d="M595.593 195.216c.946.002 2.868.139 3.646.623 8.678 5.399 20.537 23.093 24.846 31.265a94 94 0 0 1 6.544 15.987c8.298 26.905 2.036 53.263-10.853 77.484-3.067 5.323-4.131 7.508-9.212 11.008 12.477-36.998 4.147-78.311-7.728-114.5-2.145-6.536-7.889-16.153-7.243-21.867"/><path fill="#fefefe" d="M266.351 477.203c4.286 1.792 13.629 7.483 18.518 9.985a1075 1075 0 0 0 36.998 17.642c-2.302 8.637-5.474 17.367-8.145 25.982l-4.586-1.867c-23.852-8.809-34.587-13.931-56.824-26.751 4.696-10.995 7.249-15.38 14.039-24.991"/><path fill="#fefefe" d="M369.837 348.903c7.236 5.246 7.855 7.678 17.029 8.945 4.481 15.985 12.756 39.101 25.118 50.069 2.609 2.315 10.115 7.504 13.255 9.805-1.094 2.584-7.165 4.659-9.815 5.803-3.401 1.555-5.329 2.604-8.548 4.525-1.681-2.471-8.262-12.867-11.035-12.8-12.115.295-19.806-14.168-24.392-24.209-6.66-14.579-7.82-26.847-1.612-42.138"/><path fill="#fefefe" d="m535.865 354.574 1.134-.286.576.724c3.009 20.521 9.24 38.108 13.127 58.21.495 2.556-2.994 9.579-4.401 12.105-7.833-1.487-18.562-5.261-28.028-7.223-7.483-1.62-15.028-2.089-22.345-3.835 15.698-13.313 26.224-25.261 32.573-45.506 1.263-4.026 1.43-8.753 3.304-12.295.722-1.367 2.47-1.477 4.06-1.894"/><path fill="#f5c87a" d="M203.179 253.671c3.36 2.221 3.738 7.459 4.472 11.309 5.432 28.486 11.537 56.613 29.728 80.108 3.044 3.933 12.729 14.265 13.819 18.316-.362 1.754.082 1.073-1.381 2.11-1.763.317-2.218-.03-3.871-.692-27.675-15.859-49.026-42.623-50.033-75.124-.288-9.314.734-28.803 7.266-36.027"/><path fill="#f5c87a" d="M157.276 334.13c2.511 1.21 2.925 2.734 4.111 5.211 5.859 12.236 10.475 24.637 16.935 36.611a146.3 146.3 0 0 0 18.724 27.152 132 132 0 0 0 9.303 9.611c2.296 2.147 8.356 6.836 8.636 9.764-1.134.681-.493.468-2.115.181-10.324-4.155-19.963-12.295-27.777-20.085-14.314-14.268-28.874-30.574-31.113-51.543-.647-6.059-.603-11.868 3.296-16.902"/><path fill="#fefefe" d="M501.713 422.782c4.684.995 7.288 5.235 9.611 9.194 9.773 16.66 11.889 35.372 14.007 54.182a601 601 0 0 0-5.668-3.658c-8.926-5.672-15.003-8.777-25.885-7.609 6.42-18.877 12.488-30.857 7.935-52.109"/><path fill="#f5c87a" d="M806.525 208.467c2.061 2.58 3.595 5.925 4.798 8.978 11.578 29.37-.952 57.325-23.554 76.441-1.62 1.219-3.596 2.802-5.492 1.716-1.513-3.835 6.095-13.673 8.299-17.871 8.676-16.531 12.79-33.877 14.86-52.26.561-4.979.114-12.71 1.089-17.004"/><path fill="#f5c87a" d="M263.071 187.177c.648.115 2.338.494 2.497 1.257 5.271 25.189 5.37 51.091 16.578 74.933 1.985 4.221 12.559 21.945 11.882 24.868-1.528.318-.746.313-2.376-.44-16.277-14.947-24.478-34.578-30.105-55.619-3.434-12.838-5.577-32.961 1.524-44.999"/><path fill="#fefefe" d="M417.191 430.481c1.381.667.573.337.439 1.896-1.332 15.471 8.608 33.07 15.245 46.6-9.151-1.41-13.892-1.312-22.622 1.409-3.449 1.489-7.412 3.614-10.814 5.329a88 88 0 0 0 1.378-2.61c3.472-6.886 10.004-30.704 10.871-39.385.324-3.253-.934-6.818-1.96-9.935z"/><path fill="#f5c87a" d="M904.633 311.018c.314 1.891-5.282 11.723-6.404 13.689-10.394 18.21-33.126 42.111-53.554 47.52-.803-3.12 2.024-5.474 4.148-7.497 13.428-12.793 28.677-23.437 41.072-37.385 4.882-5.494 9.609-11.059 14.738-16.327"/><path fill="#fefefe" d="M615.301 807.691a533 533 0 0 0 64.351 23.614c-.119 2.414-.19 5.064-.411 7.45-19.295-7.936-37.724-16.601-56.275-26.138-2.516-1.293-5.474-2.969-8.02-4.103z"/><path fill="#fefefe" d="M373.195 329.489c10.492-.961 13.031 17.808 11.114 21.414q-.674-.297-1.343-.606c-6.844-3.239-13.656-13.306-9.771-20.808"/><path fill="#fefefe" d="M533.638 329.433c9.985 2.107 7.315 8.874 3.086 15.447-1.013 1.102-2.423 2.081-3.629 3.002.596-5.621.593-12.779.543-18.449"/><path fill="#fefefe" d="M707.347 507.611c3.117-.156 6.015-.783 8.46.904 1.003 2.144.584 1.954.295 4.732-3.085-1.249-7.775-2.417-8.755-5.636"/><path fill="#fefefe" d="M710.492 678.49c.906.886-.107 5.17-.302 6.545-2.042-.233-4.207-.334-6.266-.467-.462-.113-.178-.002-.743-.531.886-1.358 5.67-4.418 7.311-5.547"/><path fill="#49484b" d="M614.946 808.514c-2.148-1.015-6.449-2.794-7.757-4.479l.645.951-.527-.513.464.5.94-.827c1.239.472 5.421 2.835 6.59 3.545z"/><path d="M197.495 694.578c.785-.08 1.666-.153 2.444-.022 3.607.604 87.661 71.132 97.018 79.503 3.965 3.547 8.514 7.293 11.425 11.755.404 4.209.103 10.042.005 14.388 4.95 2.217 11.172 4.397 16.457 6.664 3.829-3.446 7.105-7.442 10.787-11.037 2.774-2.708 8.801-7.659 12.941-7.303.228.019.448.097.675.119.437.044.916.208 1.317.029 2.501-1.112 36.782-68.145 39.858-69.955 1.57-.924 6.752-.338 8.613-.194 12.064.937 24.104 2.713 36.148 3.927 9.56.964 73.459 6.045 76.568 7.536.869.417 2.292 1.49 2.579 2.436.681 2.241-13.271 67.911-14.398 73.787-3.385 17.657-6.282 35.392-9.768 53.035-1.524 7.712-2.496 16.511-5.666 23.69-4.829.815-21.311-1.803-27.127-2.488l-32.182-3.63-69.389-8.303c-5.451-.638-40.742-3.418-42.152-7.302.997-6.287 14.891-29.368 18.631-37.204-3.27-.013-11.187.136-14.178.882-16.129 4.021-31.836 14.2-46.932 20.948a274 274 0 0 1-40.927 14.171c-41.195 10.544-97.038 9.016-134.895-11.329-22.937-12.326-28.18-35.108-19.685-57.994 5.989-16.13 12.236-30.651 20.996-45.669 1.75-2.997.717-8.135 2.649-11.077 13.092-8.456 29.833-12.318 44.084-18.866 13.95-6.192 22.008-8.893 35.374-14.112 6.504-2.54 12.924-5.092 18.73-6.385"/><path fill="#fefefe" d="M394.296 724.802c35.718 4.524 76.415 8.266 112.353 11.358-5.374 30.536-12.057 60.902-17.526 91.405-2.956 16.486-5.922 32.631-9.716 48.96-10.864-1.986-27.699-3.419-39.027-4.668-15.079-1.66-30.104-3.844-45.196-5.583-24.142-2.783-49.114-5.046-73.153-8.489 5.654-13.288 14.939-27.796 21.853-40.592 4.667-8.22 8.432-17.612 13.25-25.671 13.069-21.861 24.734-44.555 37.162-66.72"/><path d="M360.632 831.106c6.404.005 88.588 9.519 92.797 11.141 1.203.463 1.354.958 1.926 2.02-.057 1.796-.912 2.532-2.029 3.979-5.245.685-89.026-10.068-91.765-11.179-1.309-.531-1.614-1.371-2.155-2.581.097-1.918.186-1.857 1.226-3.38"/><path d="M398.71 747.012c5.844-.35 83.071 4.153 84.94 5.493.953.683 1.576 1.74 1.601 2.929.032 1.537-.67 2.063-1.647 3.065-6.836.184-14.955-.421-21.881-.794q-21.457-1.202-42.883-2.87c-6.065-.442-13.254-.831-19.333-1.553-1.293-.154-2.275-1.569-2.778-2.796.289-1.912.655-2.094 1.981-3.474"/><path d="M371.066 812.35c4.995-.089 12.154.818 17.231 1.334l27.204 2.773c10.487 1.043 35.558 2.748 45.099 4.704 1.731 1.363 1.183.542 1.952 2.368-.176 1.863-.46 2-1.711 3.36-5.879 1.241-19.955-1.784-26.877-2.013-2.449-.081-12.786-1.101-14.96-1.513-6.725-1.272-46.217-2.856-48.668-6.126-.32-2.046.113-2.832.73-4.887"/><path d="M379.905 789.605c7.427-.045 84.079 6.979 85.846 8.053 1.083.657 1.628 1.347 1.808 2.623.208 1.475-.712 2.546-1.53 3.617-15.779-.209-36.43-3.387-52.551-4.775-6.581-.567-28.027-2.202-33.529-3.284-2.458-2.193-1.822-3.779-.044-6.234"/><path d="M391.394 766.489c6.306-.265 75.044 5.463 79.222 6.812 1.33.43 1.804 1.07 2.502 2.222.27 1.996.091 2.119-.905 3.99-4.641.351-78.19-5.946-80.601-6.89-1.22-.478-1.42-1.253-1.786-2.397.272-2.092.305-1.986 1.568-3.737"/><path fill="#fefefe" d="M197.426 702.07c.426-.065.6-.124 1.072-.012 3.19.759 86.802 70.914 95.513 78.627 2.636 2.333 5.086 4.724 7.347 7.422-30.191 13.05-63.335 24.481-93.096 38.4l-6.627 2.951c-4.612-2.631-10.716-8.019-14.957-11.577a565 565 0 0 1-25.235-22.062c-12.131-11.292-23.503-23.602-35.157-35.408-2.923-2.961-20.383-19.697-20.483-22.485 2.716-2.808 83.382-33.639 91.623-35.856"/><path d="M206.215 722.563c1.304-.178 2.962-.461 4.257-.102 3.137.869 32.92 27.558 34.135 30.537.316.775.536 1.312.157 2.082-3.09 6.285-62.404 27.308-72.14 30.64l-5.546 1.61c-7.276-3.725-25.38-23.999-30.433-31.672-1.876-2.849-1.5-6.193 2.283-7.694 7.861-3.118 15.927-5.93 23.926-8.83a1173 1173 0 0 0 43.361-16.571"/><path fill="#fefefe" d="M207.945 728.989c6.065 3.773 22.219 19.229 27.281 24.623-5.1 2.651-14.273 6.159-19.813 8.429a754 754 0 0 1-45.274 17.237l-1.346.179c-3.116-1.493-22.974-21.845-25.745-25.836 20.513-6.705 44.856-16.641 64.897-24.632"/><path d="M262.713 782.901c3.565.79 8.996 3.619 8.925 7.839-.675 1.729-1.211 1.866-2.783 2.852-3.448-1.081-8.476-4.069-9.21-7.891.834-1.805 1.073-1.497 3.068-2.8"/><path d="M250.363 771.872c3.098.335 6.834 3.315 6.975 6.779-.699 1.677-1.472 1.976-2.979 3.006-3.184-.082-7.476-3.113-7.358-6.846.81-1.739 1.678-1.985 3.362-2.939"/><path d="M182.75 783.953c3.719.11 9.476-.236 11.979 2.746.482 2.154.377 1.409-.581 3.814-5.126.446-12.821.458-11.398-6.56"/><path d="M221.149 771.998c3.325-.304 8.481-.008 9.282 3.972-.888 1.913-.639 1.333-2.599 2.712-4.68 1.424-10.664-1.459-6.683-6.684"/><path d="M209.622 804.118c3.611-.247 8.089-.605 9.837 3.096-.055 1.823-.446 2.105-1.52 3.566-3.445.303-7.087-.169-9.13-3.211-.214-2.127-.258-1.331.813-3.451"/><path d="M236.894 793.268c3.288.501 7.48 2.471 7.745 6.207-.535 1.774-.883 1.874-2.355 2.97-3.321-.866-6.548-2.305-7.387-5.921.517-2.177.282-1.449 1.997-3.256"/><path d="M240.547 761.828c3.471.486 5.963 2.205 6.282 5.873-.769 1.954-.561 1.361-2.534 2.809-5.192.247-8.796-4.194-3.748-8.682"/><path d="M228.527 783.038c2.553-.061 4.043-.375 5.812 1.709.713 3.809-2.263 4.167-5.214 4.906-2.19-.479-2.508-.47-4.39-1.584-.899-1.518-.765-.716-.323-2.499 1.324-1.524 2.196-1.7 4.115-2.532"/><path d="M205.683 775.989c3.254.472 6.481 1 7.108 4.692-.542 1.744-1.155 1.976-2.624 3.073-2.83-.989-6.673-1.81-6.966-5.216.726-1.578 1.036-1.588 2.482-2.549"/><path d="M201.081 793.492c1.946.032 2.811-.153 4.427.92 1.602 3.249-1.978 4.811-4.383 6.187-1.89.171-2.427.165-3.976-.804-1.302-3.197 1.551-4.826 3.932-6.303"/><path fill="#fefefe" d="M98.571 755.835c3.053 5.724 6.155 11.474 10.178 16.589 16.801 21.357 49.468 47.022 74.024 58.969 7.07 3.44 15.155 6.903 23.151 7.04 15.416.265 69.682-21.726 88.26-28.161 4.789 5.706 6.741 6.794 13.166 10.93-7.649 3.214-13.78 6.193-21.15 9.939a329 329 0 0 1-37.486 16.369c-39.88 14.149-85.762 15.794-126.654 4.841-20.352-5.451-45.31-19.076-43.425-43.364 1.325-17.065 12.484-37.874 19.936-53.152"/><path fill="#fefefe" d="M104.597 749.256c2.693 1.343 23.369 22.899 27.067 26.733 16.333 16.927 32.396 31.926 50.318 47.167-4.836-1.067-21.266-12.783-26.464-16.737-17.563-13.359-38.22-30.972-49.593-50.287-.424-.721-1.167-5.798-1.328-6.876"/><path fill="#fefefe" d="m301.186 795.448.863.333c.194 1.571.384 1.866-.232 3.317-3.61 3.647-17.448 7.366-22.8 9.437a1075 1075 0 0 1-62.401 22.042l-.77-.321c3.379-2.067 25.128-10.418 29.771-12.251z"/><path fill="#fefefe" d="M300.795 806.864c7.28-.496 19.629 5.145 24.89 10.067-9.274 1.654-20.691-.652-24.89-10.067"/><path fill="#fefefe" d="m346.426 795.873.792.288c-.593 2.417-9.128 19.226-11.047 19.633l-1.842-1.484-3.842-4.01c5.458-5.571 9.398-10.156 15.939-14.427"/></svg>